HIERARCHY
ROOT Hips
{
   OFFSET 0.00000 0.00000 0.00000
   CHANNELS 6 Xposition Yposition Zposition Zrotation Xrotation Yrotation
   JOINT Spine
   {
      OFFSET 0.000000 11.890501 0.000000
      CHANNELS 3 Zrotation Xrotation Yrotation
      JOINT Spine1
      {
         OFFSET -0.000000 25.657401 0.127660
         CHANNELS 3 Zrotation Xrotation Yrotation
         JOINT HEad
         {
            OFFSET 0.000000 8.734161 0.011340
            CHANNELS 3 Zrotation Xrotation Yrotation
            End Site
            {
               OFFSET -0.290000 12.774200 2.513950
            }
         }
         JOINT LeftShoulder1
         {
            OFFSET 8.990000 -0.362250 -0.220000
            CHANNELS 3 Zrotation Xrotation Yrotation
            JOINT LeftArm
            {
               OFFSET 10.282700 -0.003380 0.322120
               CHANNELS 3 Zrotation Xrotation Yrotation
               JOINT LeftForeArm
               {
                  OFFSET 32.766900 0.099140 -1.424340
                  CHANNELS 3 Zrotation Xrotation Yrotation
                  JOINT LeftHand
                  {
                     OFFSET 27.564301 0.085360 1.022160
                     CHANNELS 3 Zrotation Xrotation Yrotation
                     End Site
                     {
                        OFFSET 16.744301 -0.600000 1.502910
                     }
                  }
               }
            }
         }
         JOINT RightShoulder
         {
            OFFSET -8.990000 -0.362250 -0.220000
            CHANNELS 3 Zrotation Xrotation Yrotation
            JOINT RightArm
            {
               OFFSET -10.282700 -0.003380 0.322120
               CHANNELS 3 Zrotation Xrotation Yrotation
               JOINT RightForeArm
               {
                  OFFSET -32.897098 0.099140 -1.424340
                  CHANNELS 3 Zrotation Xrotation Yrotation
                  JOINT RightHand
                  {
                     OFFSET -27.492101 0.085360 1.022160
                     CHANNELS 3 Zrotation Xrotation Yrotation
                     End Site
                     {
                        OFFSET -16.631201 -0.600000 1.502910
                     }
                  }
               }
            }
         }
      }
   }
   JOINT LeftUpLeg
   {
      OFFSET 8.945800 -8.667070 0.101650
      CHANNELS 3 Zrotation Xrotation Yrotation
      JOINT LeftLeg
      {
         OFFSET 0.000000 -44.422697 1.372700
         CHANNELS 3 Zrotation Xrotation Yrotation
         JOINT LeftFoot
         {
            OFFSET -0.253550 -42.092399 -1.460590
            CHANNELS 3 Zrotation Xrotation Yrotation
            JOINT LeftToes
            {
               OFFSET -0.040000 -4.415090 8.499099
               CHANNELS 3 Zrotation Xrotation Yrotation
               End Site
               {
                  OFFSET 0.080000 -0.047450 9.779790
               }
            }
         }
      }
   }
   JOINT RightUpLeg
   {
      OFFSET -8.945800 -8.667070 0.101650
      CHANNELS 3 Zrotation Xrotation Yrotation
      JOINT RightLeg
      {
         OFFSET 0.000000 -44.422697 1.372700
         CHANNELS 3 Zrotation Xrotation Yrotation
         JOINT RightFoot
         {
            OFFSET 0.253550 -42.092399 -1.460590
            CHANNELS 3 Zrotation Xrotation Yrotation
            JOINT RightToes
            {
               OFFSET 0.040000 -4.415090 8.499099
               CHANNELS 3 Zrotation Xrotation Yrotation
               End Site
               {
                  OFFSET -0.080000 -0.137450 9.779790
               }
            }
         }
      }
   }
}
MOTION
Frames: 14
Frame Time: 0.016670
26.089305 91.189679 -18.085456 8.864153 16.058690 157.210628 -4.921599 34.751360 -1.708017 -1.039118 -0.201903 -0.904375 -17.541176 20.998445 21.099224 1.387148 19.637557 2.258668 -132.879582 -56.584463 -108.427716 -23.459053 51.910664 -92.064666 14.219390 11.152518 -14.933047 11.818837 23.584279 3.715240 107.778090 -6.590243 89.785405 -3.644786 47.749415 103.282268 21.165564 10.869826 8.540160 13.922279 3.298394 -9.963151 -30.359993 5.716243 57.806807 -27.088834 -7.171186 -8.995380 45.667867 -17.888423 -63.487804 -36.403996 9.871386 4.543096 52.093778 24.120461 -33.670476 -28.357141 -3.956024 -1.475678 7.115930 -28.858079 6.044439
25.481228 91.454886 -18.323523 9.525367 15.853725 156.657547 -4.379026 34.318787 -0.461824 -1.020616 0.016474 -0.821940 -16.668568 20.567475 19.633903 2.025293 19.585444 1.370956 -132.304002 -55.907311 -107.710703 -22.459231 51.587678 -92.527774 13.590542 11.247269 -15.092988 11.963423 23.687694 2.760645 108.806150 -6.528807 90.430769 -4.276296 48.081957 104.480523 21.837967 10.984750 7.500839 13.919363 3.669533 -6.509976 -29.325243 7.216803 55.643280 -29.028089 -6.893135 -8.867413 47.047811 -18.111469 -63.985485 -36.149538 7.597412 7.166086 53.792073 24.167383 -35.853213 -28.457993 -3.743156 -1.335239 6.793209 -28.682013 6.070724
24.950409 91.774338 -18.512078 10.117706 15.600979 156.037461 -3.873683 33.945654 0.580133 -1.028020 0.177560 -0.760908 -15.880885 20.169089 18.340835 2.566078 19.531648 0.594282 -131.901512 -55.256773 -107.083235 -21.482193 51.396552 -93.086217 12.808656 11.481584 -15.145634 12.135435 23.779305 2.130390 109.872950 -6.457733 91.156231 -4.854367 48.359150 105.539400 22.366539 11.210898 6.700748 13.828159 3.809375 -3.328274 -28.158529 8.570646 53.733064 -27.603535 -6.627034 -8.582872 45.361038 -18.197149 -64.379000 -35.712778 5.848762 9.428846 54.884982 23.830687 -37.723176 -28.372884 -3.579115 -1.260995 6.691372 -28.340980 6.318568
24.526879 92.149218 -18.659495 10.571609 15.340335 155.607105 -3.377098 33.562761 1.439067 -1.111575 0.327247 -0.701233 -15.131456 19.770490 17.197907 2.888436 19.430374 -0.007321 -131.668084 -54.710112 -106.601344 -20.750284 51.239724 -94.000663 11.885940 11.657165 -15.035774 12.289729 23.975152 1.716258 110.880628 -6.401974 91.871707 -5.375349 48.675671 106.535310 22.757714 11.265354 6.132759 13.660532 3.840544 -0.464833 -26.673712 9.907339 51.881007 -26.406094 -6.413872 -8.371313 43.520780 -18.244562 -64.732401 -35.168869 4.462207 11.564284 55.388965 23.428387 -39.229881 -28.087060 -3.389652 -1.160283 6.640337 -27.925191 6.767622
24.187734 92.544917 -18.786256 10.965594 15.018362 155.189753 -3.045024 33.243514 2.140694 -1.059935 0.342069 -0.627751 -14.433882 19.448607 16.191136 3.131210 19.130948 -0.388757 -131.572529 -54.195345 -106.314292 -19.849810 50.861099 -94.705190 10.937751 11.919392 -14.557708 12.381465 24.185121 1.530872 111.750467 -6.294412 92.655512 -5.758370 49.099809 107.634041 23.101197 11.375598 5.838073 13.688116 3.677482 2.015514 -25.229783 11.165751 50.012237 -25.283398 -6.116610 -8.253647 41.613511 -18.219333 -65.094742 -34.520213 3.407827 13.492310 55.497753 22.940046 -40.392195 -27.683711 -3.198376 -1.044430 6.651130 -27.452829 7.332359
23.902287 92.898663 -18.877154 11.422990 14.422503 155.174316 -3.128416 33.077189 2.625799 -0.982688 0.281758 -0.611453 -13.773257 19.223127 15.305071 3.157439 18.757902 -0.624292 -131.565931 -53.822656 -106.212795 -19.159521 50.518333 -95.671901 9.808036 12.188578 -13.859958 12.580381 24.375270 1.476386 112.751977 -6.280507 93.445874 -6.123674 49.380116 108.477809 23.365731 11.363927 5.836117 13.802661 3.473693 4.352686 -23.697584 11.927897 48.227884 -24.226256 -5.825106 -8.161984 39.652892 -18.101880 -65.322638 -33.563754 2.668905 15.161780 55.334047 22.324239 -41.253325 -27.190650 -2.973502 -0.911398 6.679250 -26.925625 7.933227
23.683216 93.237504 -18.937672 11.546119 14.012363 155.181037 -2.667920 32.601821 2.940099 -0.974365 0.331676 -0.611873 -13.178691 19.031627 14.536427 3.199187 18.541373 -0.848948 -131.520907 -53.477407 -106.023578 -18.542319 50.494578 -96.716367 8.766117 12.434729 -13.378482 12.660794 24.550154 1.538027 113.729596 -6.251954 94.228094 -6.400657 49.663091 109.236650 23.567810 11.351330 6.170446 13.653454 3.366726 6.438812 -22.240585 12.329723 46.505904 -23.079817 -5.428490 -8.081009 37.763221 -17.834409 -65.494165 -32.798046 2.132883 16.694055 54.874836 21.787042 -41.951145 -26.682385 -2.738786 -0.901934 6.751195 -26.425788 8.462903
23.533866 93.574656 -18.972079 11.574066 13.677298 155.212074 -2.026567 32.024233 3.112696 -1.099144 0.331294 -0.619266 -12.645267 18.942088 13.873706 3.144300 18.260326 -1.069104 -131.604549 -53.082383 -105.749763 -17.841776 50.415487 -97.630949 7.882487 12.602296 -12.960718 12.561857 24.718142 1.735692 114.600575 -6.180971 94.991675 -6.719570 50.042143 109.813090 23.746447 11.263049 6.756401 13.383835 3.195587 8.214182 -20.885136 12.734289 44.936860 -21.865196 -5.093819 -7.972013 35.924661 -17.429379 -65.547973 -32.111533 1.815448 18.131067 54.247592 21.285987 -42.408392 -26.214688 -2.458090 -0.861499 6.803169 -25.971274 8.992268
23.469443 93.892735 -18.977991 11.561441 13.304052 155.396393 -1.597031 31.449145 3.178125 -1.163089 0.422281 -0.620775 -12.163503 18.906312 13.310055 3.110911 17.985399 -1.255891 -131.690637 -52.691706 -105.468988 -17.069368 50.370067 -98.466766 7.273199 12.715984 -12.604125 12.371525 24.943957 1.972850 115.493445 -6.102487 95.712097 -7.073691 50.358773 110.371226 23.851453 11.203566 7.190045 13.173479 2.869552 9.670412 -19.608022 13.109128 43.473194 -20.654079 -4.869549 -7.902386 34.063424 -16.949659 -65.501685 -31.326161 1.675508 19.498139 53.334891 20.735792 -42.600935 -25.793967 -2.184779 -0.743215 6.819035 -25.651551 9.523307
23.509793 94.175070 -18.948093 11.606215 12.946892 155.599359 -1.314273 30.796524 3.172878 -1.197445 0.523056 -0.597205 -11.731911 18.946938 12.838395 2.946164 17.571481 -1.453352 -131.942043 -52.163661 -105.070050 -16.284655 50.137956 -99.299360 7.012932 12.721695 -12.294021 12.153441 25.287399 2.228635 116.398240 -6.014700 96.325038 -7.387434 50.614232 111.008613 23.854265 11.111452 7.507904 13.051893 2.493508 10.863103 -18.374242 13.498823 42.191267 -19.414107 -4.664854 -7.762382 32.159683 -16.436555 -65.344051 -30.499803 1.814738 20.639182 52.447636 20.059437 -42.612939 -25.394915 -1.978276 -0.614030 6.803002 -25.443196 9.967445
23.666889 94.397086 -18.867309 11.624807 12.567640 155.914832 -1.073302 30.370399 3.098104 -1.095929 0.538138 -0.570301 -11.358292 18.991073 12.454444 2.901499 17.326409 -1.682579 -132.002517 -51.814095 -104.737891 -15.419599 50.160018 -100.085275 7.028913 12.640319 -12.172719 11.894302 25.518338 2.597439 117.206975 -5.813810 96.992211 -7.771095 50.883499 111.452869 23.686352 11.003543 7.816495 12.999346 2.232467 11.883665 -17.370035 13.702444 41.044605 -18.259076 -4.611300 -7.658826 30.110944 -15.985766 -65.107180 -29.721281 2.177848 21.572750 51.556956 19.235491 -42.455302 -25.011290 -1.865552 -0.452751 6.740475 -25.367396 10.322711
23.935384 94.541367 -18.759074 11.654485 12.275635 156.311761 -1.065918 30.182876 2.960270 -0.940361 0.533934 -0.557169 -11.031450 19.084706 12.143656 2.855894 17.051958 -1.779274 -131.926647 -51.613690 -104.536052 -14.632895 50.203212 -100.940313 7.148535 12.515815 -11.977409 11.681263 25.762304 2.872963 117.881921 -5.646537 97.617432 -8.175890 51.185943 111.845051 23.561941 10.902707 8.085890 13.169840 1.966794 12.678052 -16.573024 13.769491 39.998138 -17.021105 -4.465337 -7.568950 28.044941 -15.570707 -64.921105 -28.897158 2.725615 22.321950 50.714547 18.373238 -42.253910 -24.628643 -1.829565 -0.355252 6.656909 -25.434188 10.521310
24.291274 94.623383 -18.619789 11.562427 12.010764 156.862971 -1.082881 29.957968 2.774149 -0.625550 0.448649 -0.567311 -10.733840 19.220256 11.891405 2.906981 16.784536 -1.763178 -131.626502 -51.571623 -104.468665 -13.807641 50.322996 -101.667851 7.359823 12.368413 -11.675817 11.549344 25.946084 3.147448 118.407736 -5.338449 98.240878 -8.578007 51.516589 112.278386 23.506234 10.849540 8.254327 13.492095 1.748132 13.273455 -16.197923 13.729164 39.040811 -15.666511 -4.280120 -7.537082 26.066848 -15.157698 -64.749702 -28.157709 3.388627 22.947660 49.741187 17.425669 -41.977923 -24.266856 -1.870157 -0.248678 6.527606 -25.535403 10.598628
24.733147 94.597014 -18.437099 11.462630 11.992044 157.221529 -1.042735 29.785943 2.580533 -0.648172 0.516967 -0.577983 -10.476253 19.415890 11.693611 2.577264 16.556056 -1.752542 -131.539990 -51.622805 -104.219200 -13.245714 50.379571 -102.581648 7.542829 12.221372 -11.315614 11.468677 26.259448 3.290081 118.810184 -5.062149 98.708712 -8.970140 51.882073 112.719807 23.483326 10.815897 8.365626 13.766574 1.586392 13.584839 -15.847642 13.900413 38.246590 -14.284735 -4.161796 -7.502199 24.070201 -14.813347 -64.550718 -27.402033 4.381703 23.399697 48.301179 15.975638 -41.553993 -23.879825 -1.968031 -0.164966 6.268285 -25.261890 10.629521
